<svg xmlns="http://www.w3.org/2000/svg" width="411" height="127" viewBox="0 0 411 127" fill="none"><g clip-path="url(#clip0_35_699)"><path d="M37.2568 127C14.6007 127 0 110.156 0 86.2387C0 62.3209 17.118 45.8143 37.7603 45.8143C58.4026 45.8143 73.0033 61.3103 73.0033 82.3647C73.0033 84.8912 72.4998 88.2599 72.4998 88.2599H9.2303C10.0694 106.788 20.4745 119.084 38.096 119.084C55.7174 119.084 65.4512 108.977 65.4512 108.977L69.6468 115.21C69.6468 115.21 59.913 127 37.2568 127ZM37.2568 53.3939C17.9571 53.3939 10.0694 69.7321 9.56595 80.6804H64.1086C64.1086 70.5743 56.5566 53.3939 37.2568 53.3939Z" fill="#333333"></path><path d="M105.225 0V125.316H96.4985V0H105.225Z" fill="#333333"></path><path d="M137.448 0V125.316H128.721V0H137.448Z" fill="#333333"></path><path d="M169.67 47.1618V125.316H160.943V47.1618H169.67Z" fill="#333333"></path><path d="M230.422 127C207.766 127 193.165 110.156 193.165 86.2387C193.165 62.3209 210.283 45.8143 230.925 45.8143C251.568 45.8143 266.168 61.3103 266.168 82.3647C266.168 84.8912 265.665 88.2599 265.665 88.2599H202.395C203.234 106.788 213.639 119.084 231.261 119.084C248.882 119.084 258.616 108.977 258.616 108.977L262.812 115.21C262.812 115.21 253.078 127 230.422 127ZM230.422 53.3939C211.122 53.3939 203.234 69.7321 202.731 80.6804H257.274C257.274 70.5743 249.721 53.3939 230.422 53.3939Z" fill="#333333"></path><path d="M165.306 23.5809C171.794 23.5809 177.054 18.3021 177.054 11.7905C177.054 5.27876 171.794 0 165.306 0C158.818 0 153.559 5.27876 153.559 11.7905C153.559 18.3021 158.818 23.5809 165.306 23.5809Z" fill="#FA5B4C"></path><path d="M325.354 0.50531L338.724 36.382H338.836L352.15 0.50531H360.149L364.401 46.9934H357.968L354.947 10.2745H354.723L340.57 47.3864H336.878L322.725 10.2745H322.501L319.536 46.9934H313.103L317.298 0.50531H325.354Z" fill="#333333"></path><path d="M403.784 6.56897C407.14 9.65695 410.944 15.0469 410.944 23.7493C410.944 32.4518 407.14 37.8417 403.784 40.9297C400.427 44.0177 394.497 46.9934 386.498 46.9934H372.568V0.50531H386.498C394.553 0.50531 400.483 3.48099 403.784 6.56897ZM398.805 36.9996C401.378 34.5853 404.287 30.4867 404.287 23.7493C404.287 17.0119 401.322 12.8572 398.805 10.3868C396.287 7.91645 392.092 6.06367 386.442 6.06367H379.002V41.2666H386.442C392.092 41.2666 396.232 39.3577 398.805 36.9434V36.9996Z" fill="#333333"></path></g><defs><clipPath id="clip0_35_699"><rect width="411" height="127" fill="white"></rect></clipPath></defs></svg>