<svg xmlns="http://www.w3.org/2000/svg" width="402" height="156" viewBox="0 0 402 156" fill="none"><path d="M127.03 65.0181C123.942 63.9874 120.958 62.515 118.121 60.6597C117.855 57.9062 117.19 55.1674 116.097 52.5759C112.832 44.7866 104.44 39.5446 100.865 38.5875C100.584 38.5139 99.9635 38.3519 99.2691 38.3961C96.196 32.3738 94.8072 27.7503 94.7777 27.6766L90.5226 28.9135C90.6852 29.4436 94.3787 41.8564 103.539 53.1796C105.918 61.6168 103.317 70.1276 96.7279 73.5289C91.8819 76.0321 85.8835 75.399 81.4511 71.9092L81.2886 71.7914C73.6798 66.7998 64.3128 66.093 56.8813 69.9361C50.8977 73.0283 45.963 78.6236 44.131 85.5295C43.8798 85.5295 43.6139 85.5295 43.3627 85.5589C43.3627 85.5589 43.3184 85.5589 43.3036 85.5589C42.3433 85.6178 41.383 85.7503 40.4079 85.9712C28.4997 87.959 16.0006 94.9974 10.0169 108.809C8.62812 111.415 7.47572 112.078 6.8552 112.196C5.64369 112.431 4.16625 111.268 3.13205 110.252L0.0146484 113.388C2.21603 115.568 4.38787 116.657 6.51538 116.657C6.8552 116.657 7.20978 116.613 7.54959 116.554C6.81087 119.926 6.41196 123.607 6.41196 127.598C6.41196 135.387 8.82019 145.105 12.8536 153.616L13.4594 154.882H30.9522L30.6715 152.408C30.6124 151.834 29.3271 138.759 48.4599 135.416C50.0555 138.538 53.7935 146.519 53.7048 152.629L53.6753 154.867H71.0057L71.5375 153.41C72.2319 151.496 72.7786 149.022 73.1775 145.93C76.1028 149.154 77.7575 152.6 77.7723 152.644L78.8656 154.971L95.2504 144.074L94.4083 142.352C93.9946 141.498 85.1743 123.416 75.1573 114.434C75.8073 114.213 76.4426 113.977 77.0484 113.712C77.8757 113.359 78.7179 112.858 79.4714 112.417L79.8998 112.166C83.8151 109.737 86.6665 106.954 88.3803 103.862C90.4931 100.033 93.0934 99.6503 93.9503 99.5325C94.364 99.4736 95.6198 99.2822 96.063 97.957L96.4767 96.6318L95.5016 95.6747C95.1618 95.3507 94.8368 95.0268 94.5117 94.7176C93.5957 93.8488 92.2217 92.5384 92.0739 92.1113C92.0148 91.2426 94.5117 90.0057 99.5055 88.4007C100.407 88.1063 101.249 87.8412 101.973 87.5762C107.779 85.3233 112.669 81.1268 115.019 76.4297C116.836 73.2492 117.9 69.5975 118.21 65.8427C120.618 67.2121 123.115 68.3459 125.686 69.1852L127.089 64.9887L127.03 65.0181ZM33.3161 97.1619C35.2073 93.0832 38.7827 90.5505 43.4218 89.991C43.2002 93.6427 43.8355 97.5594 45.5789 101.579C47.4109 105.79 50.6317 109.398 54.9754 112.137C50.6908 117.555 41.3682 120.574 37.778 121.575C31.9717 112.726 30.3022 103.685 33.3161 97.1619ZM47.7951 90.5211C48.9031 90.8892 49.9374 91.4487 50.9272 92.1997C54.5765 94.9679 56.9109 100.077 57.1916 105.849C57.2359 106.644 57.162 107.41 56.9847 108.146C54.2663 106.365 51.3409 103.67 49.6566 99.8123C48.2235 96.5434 47.6769 93.4218 47.8098 90.5211H47.7951ZM89.518 142.587L80.5351 148.565C79.235 146.386 76.9006 143.044 73.6798 140.364C73.8867 137.095 74.0049 133.355 74.0049 129.114C74.0049 125.271 73.8128 121.929 73.4434 118.939C80.5942 126.007 87.2279 138.126 89.5327 142.587H89.518ZM111.059 74.3682C109.138 78.2113 105.12 81.6127 100.348 83.468C99.6975 83.7036 98.9293 83.9539 98.0871 84.219C93.5218 85.6914 87.2575 87.694 87.5973 92.45C87.7007 93.8488 88.5576 95.071 89.7396 96.3078C87.6121 97.4122 85.8539 99.238 84.4504 101.756C83.1354 104.127 80.742 106.438 77.5655 108.411L77.1518 108.647C76.5313 109.015 75.8073 109.442 75.2459 109.692C73.5616 110.414 71.4784 111.018 69.8385 111.253L67.3859 111.607L68.0064 114.007C69.0702 118.056 69.5578 122.871 69.5578 129.129C69.5578 138.994 68.9668 146.165 67.7848 150.494H58.0042C57.2211 141.998 51.8137 132.383 51.5625 131.941L50.8238 130.631L49.3316 130.837C31.5432 133.325 26.5199 143.677 26.1506 150.494H16.2517C12.8388 142.867 10.8295 134.415 10.8295 127.627C10.8295 109.972 19.4725 99.3264 29.9771 93.9961C29.726 94.4231 29.5044 94.8648 29.2975 95.3213C25.4709 103.597 27.6132 114.831 35.0152 125.374L35.8721 126.582L37.32 126.258C38.3394 126.022 62.3183 120.5 61.6091 105.643C61.2693 98.5754 58.2849 92.2439 53.6014 88.6952C52.0353 87.5025 50.3215 86.6485 48.519 86.1332C50.1442 80.6262 54.2515 76.2972 58.935 73.8823C64.9334 70.7902 72.5422 71.3939 78.7918 75.4431C84.5833 79.9488 92.4137 80.744 98.7815 77.4604C107.469 72.9841 110.911 61.8818 107.602 51.2212H107.631C107.631 51.2212 107.602 51.1623 107.587 51.1329C107.085 49.5573 106.449 47.9965 105.652 46.4652C105.607 46.3916 105.563 46.3032 105.533 46.2296C108.03 48.2174 110.631 50.9856 112.019 54.2987C114.708 60.7186 114.354 68.5668 111.059 74.3682Z" fill="#333333"></path><path d="M107.302 17.9218C108.326 16.9191 108.845 15.4362 108.494 13.9392C108.158 12.4422 107.05 11.3123 105.703 10.8745C106.194 9.53287 106.026 7.96523 105.072 6.76479C104.118 5.56435 102.646 5.02768 101.229 5.2254C101.103 3.799 100.261 2.47145 98.8868 1.79355C97.5123 1.12978 95.9555 1.29925 94.7493 2.09013C94.02 0.861445 92.6875 0.0281982 91.1588 0.0281982C89.63 0.0281982 88.2976 0.861445 87.5683 2.09013C86.3761 1.29925 84.8193 1.12978 83.4448 1.80768C82.0704 2.47145 81.2288 3.799 81.0886 5.23952C79.672 5.05593 78.1994 5.57847 77.2456 6.77891C76.2919 7.97935 76.1096 9.54699 76.6005 10.8887C75.24 11.3406 74.146 12.4563 73.8094 13.9533C73.4728 15.4503 73.9777 16.9474 75.0016 17.936C73.9777 18.9387 73.4588 20.4216 73.8094 21.9186C74.146 23.4156 75.254 24.5454 76.6005 24.9832C76.1096 26.3249 76.2779 27.8925 77.2316 29.093C78.1853 30.2934 79.658 30.8301 81.0746 30.6324C81.2008 32.0588 82.0423 33.3863 83.4168 34.0642C84.7913 34.728 86.3481 34.5585 87.5543 33.7676C88.2836 34.9963 89.616 35.8296 91.1448 35.8296C92.6735 35.8296 94.0059 34.9963 94.7353 33.7676C95.9274 34.5585 97.4842 34.728 98.8587 34.0501C100.233 33.3863 101.075 32.0588 101.215 30.6183C102.632 30.8019 104.104 30.2793 105.058 29.0789C106.012 27.8784 106.194 26.3108 105.703 24.9691C107.064 24.5172 108.158 23.4015 108.494 21.9045C108.831 20.4074 108.326 18.9104 107.302 17.9218Z" fill="#FA5B4C"></path><path d="M166.158 156C151.114 156 141.431 144.85 141.431 129.011C141.431 113.172 152.785 102.253 166.489 102.253C180.193 102.253 189.876 112.509 189.876 126.443C189.876 128.117 189.544 130.353 189.544 130.353H147.555C148.117 142.614 155.019 150.749 166.705 150.749C178.391 150.749 184.861 144.056 184.861 144.056L187.642 148.182C187.642 148.182 181.187 155.986 166.143 155.986L166.158 156ZM166.158 107.273C153.347 107.273 148.117 118.091 147.771 125.333H183.968C183.968 118.64 178.953 107.273 166.143 107.273H166.158Z" fill="#333333"></path><path d="M211.274 71.9316V154.889H205.481V71.9316H211.274Z" fill="#333333"></path><path d="M232.658 71.9316V154.889H226.865V71.9316H232.658Z" fill="#333333"></path><path d="M254.042 103.147V154.889H248.249V103.147H254.042Z" fill="#333333"></path><path d="M294.36 156C279.316 156 269.633 144.85 269.633 129.011C269.633 113.172 280.988 102.253 294.691 102.253C308.395 102.253 318.078 112.509 318.078 126.443C318.078 128.117 317.747 130.353 317.747 130.353H275.757C276.319 142.614 283.221 150.749 294.907 150.749C306.594 150.749 313.063 144.056 313.063 144.056L315.845 148.182C315.845 148.182 309.389 155.986 294.345 155.986L294.36 156ZM294.36 107.273C281.55 107.273 276.319 118.091 275.973 125.333H312.17C312.17 118.64 307.156 107.273 294.345 107.273H294.36Z" fill="#333333"></path><path d="M251.145 87.5394C255.451 87.5394 258.941 84.0455 258.941 79.7355C258.941 75.4256 255.451 71.9316 251.145 71.9316C246.84 71.9316 243.35 75.4256 243.35 79.7355C243.35 84.0455 246.84 87.5394 251.145 87.5394Z" fill="#FA5B4C"></path><path d="M345.139 72.249L354.001 96.0213H354.088L362.95 72.249H368.252L371.062 103.032H366.783L364.78 78.7258H364.65L355.255 103.306H352.805L343.41 78.7258H343.28L341.321 103.032H337.041L339.808 72.249H345.154H345.139Z" fill="#333333"></path><path d="M397.23 76.2736C399.464 78.3219 402 81.8993 402 87.6548C402 93.4104 399.464 96.9733 397.23 99.0217C394.997 101.07 391.077 103.032 385.731 103.032H376.466V72.249H385.731C391.077 72.249 394.997 74.2108 397.23 76.2592V76.2736ZM393.93 96.4252C395.631 94.824 397.59 92.0977 397.59 87.6404C397.59 83.1831 395.631 80.4135 393.93 78.8124C392.244 77.2112 389.478 75.9562 385.731 75.9562H380.789V99.2813H385.731C389.478 99.2813 392.23 98.0263 393.93 96.4252Z" fill="#333333"></path></svg>