<svg width="121" height="39" viewBox="0 0 121 39" fill="none" xmlns="http://www.w3.org/2000/svg">
<g clip-path="url(#clip0_84_900)">
<path d="M11.4805 39.0001C4.49688 39.0001 0 33.8273 0 26.4796C0 19.1319 5.27669 14.063 11.6364 14.063C17.9962 14.063 22.5018 18.8199 22.5018 25.2838C22.5018 26.0637 22.3458 27.0948 22.3458 27.0948H2.84196C3.1019 32.7875 6.30777 36.5567 11.7404 36.5567C17.1731 36.5567 20.171 33.4547 20.171 33.4547L21.462 35.3696C21.462 35.3696 18.4641 38.9915 11.4805 38.9915V39.0001ZM11.4805 16.3938C5.52796 16.3938 3.1019 21.4107 2.94594 24.7726H19.7551C19.7551 21.6706 17.4243 16.3938 11.4805 16.3938Z" fill="#333333"/>
<path d="M32.4316 0V38.4801H29.7456V0H32.4316Z" fill="#333333"/>
<path d="M42.3608 0V38.4801H39.6748V0H42.3608Z" fill="#333333"/>
<path d="M52.2905 14.479V38.4803H49.6045V14.479H52.2905Z" fill="#333333"/>
<path d="M71.0142 39.0001C64.0306 39.0001 59.5337 33.8273 59.5337 26.4796C59.5337 19.1319 64.8104 14.063 71.1701 14.063C77.5299 14.063 82.0354 18.8199 82.0354 25.2838C82.0354 26.0637 81.8795 27.0948 81.8795 27.0948H62.3757C62.6356 32.7875 65.8415 36.5567 71.2741 36.5567C76.7068 36.5567 79.7047 33.4547 79.7047 33.4547L80.9957 35.3696C80.9957 35.3696 77.9978 38.9915 71.0142 38.9915V39.0001ZM71.0142 16.3938C65.0617 16.3938 62.6356 21.4107 62.4796 24.7726H79.2888C79.2888 21.6706 76.958 16.3938 71.0142 16.3938Z" fill="#333333"/>
<path d="M50.9475 7.24372C52.9477 7.24372 54.5692 5.62216 54.5692 3.62186C54.5692 1.62156 52.9477 0 50.9475 0C48.9472 0 47.3257 1.62156 47.3257 3.62186C47.3257 5.62216 48.9472 7.24372 50.9475 7.24372Z" fill="#FA5B4C"/>
<path d="M94.5993 0.147461L98.7149 11.1777H98.7582L102.874 0.147461H105.335L106.634 14.427H104.65L103.723 3.15413H103.662L99.2954 14.5569H98.1604L93.7935 3.15413H93.7328L92.823 14.427H90.8389L92.1126 0.147461H94.5993Z" fill="#333333"/>
<path d="M118.782 2.01038C119.813 2.9635 120.991 4.61847 120.991 7.28721C120.991 9.95595 119.813 11.6109 118.782 12.564C117.751 13.5172 115.922 14.427 113.444 14.427H109.138V0.147461H113.444C115.931 0.147461 117.751 1.05726 118.782 2.01038ZM117.248 11.3596C118.037 10.6145 118.946 9.34942 118.946 7.28721C118.946 5.225 118.037 3.93395 117.248 3.18879C116.46 2.44362 115.177 1.86308 113.444 1.86308H111.148V12.6853H113.444C115.186 12.6853 116.468 12.1048 117.248 11.3596Z" fill="#333333"/>
</g>
<defs>
<clipPath id="clip0_84_900">
<rect width="121" height="39" fill="white"/>
</clipPath>
</defs>
</svg>
