<?xml version="1.0" encoding="UTF-8"?>
<svg xmlns="http://www.w3.org/2000/svg" width="48" height="48" viewBox="0 0 48 48" fill="none">
  <path d="M5 24C5 15.0433 5 10.565 7.78248 7.78248C10.565 5 15.0433 5 24 5C32.9566 5 37.435 5 40.2176 7.78248C43 10.565 43 15.0433 43 24C43 32.9566 43 37.435 40.2176 40.2176C37.435 43 32.9566 43 24 43C15.0433 43 10.565 43 7.78248 40.2176C5 37.435 5 32.9566 5 24Z" stroke="white" stroke-width="3"></path>
  <path d="M22 14H34" stroke="#65C3C3" stroke-width="3" stroke-linecap="round"></path>
  <path d="M14 14H16" stroke="#65C3C3" stroke-width="3" stroke-linecap="round"></path>
  <path d="M14 24H16" stroke="#65C3C3" stroke-width="3" stroke-linecap="round"></path>
  <path d="M14 34H16" stroke="#65C3C3" stroke-width="3" stroke-linecap="round"></path>
  <path d="M22 24H34" stroke="#65C3C3" stroke-width="3" stroke-linecap="round"></path>
  <path d="M22 34H34" stroke="#65C3C3" stroke-width="3" stroke-linecap="round"></path>
</svg>
