<svg xmlns="http://www.w3.org/2000/svg" width="48" height="48" viewBox="0 0 48 48" fill="none"><path d="M40 44V38C40 32.3432 40 29.5148 38.2426 27.7574C36.4852 26 33.6568 26 28 26L24 30L20 26C14.3431 26 11.5147 26 9.75736 27.7574C8 29.5148 8 32.3432 8 38V44" stroke="white" stroke-width="3" stroke-linecap="square" stroke-linejoin="round"></path><path d="M17 26V34M17 34C19.2091 34 21 35.7908 21 38V40M17 34C14.7909 34 13 35.7908 13 38V40" stroke="#65C3C3" stroke-width="3" stroke-linecap="square" stroke-linejoin="round"></path><path d="M31 13V11C31 7.134 27.866 4 24 4C20.134 4 17 7.134 17 11V13C17 16.866 20.134 20 24 20C27.866 20 31 16.866 31 13Z" stroke="white" stroke-width="3" stroke-linecap="round" stroke-linejoin="round"></path><path d="M32 26V37M32 37C31.1716 37 30.5 37.6716 30.5 38.5C30.5 39.3284 31.1716 40 32 40C32.8284 40 33.5 39.3284 33.5 38.5C33.5 37.6716 32.8284 37 32 37Z" stroke="white" stroke-width="3" stroke-linecap="round" stroke-linejoin="round"></path></svg>