<?xml version="1.0" encoding="UTF-8"?>
<svg xmlns="http://www.w3.org/2000/svg" width="137" height="167" viewBox="0 0 137 167" fill="none">
  <path d="M136.936 70.0473C133.607 68.9364 130.39 67.3493 127.331 65.3496C127.045 62.3819 126.328 59.43 125.149 56.6368C121.629 48.2413 112.582 42.5914 108.727 41.5598C108.424 41.4805 107.756 41.3059 107.007 41.3535C103.694 34.8625 102.196 29.8792 102.165 29.7998L97.5773 31.1329C97.7525 31.7043 101.735 45.0831 111.61 57.2874C114.175 66.3812 111.371 75.5543 104.267 79.2204C99.0427 81.9184 92.5758 81.236 87.7972 77.4747L87.622 77.3477C79.4189 71.9676 69.3203 71.2058 61.3083 75.348C54.8573 78.6808 49.5373 84.7116 47.5621 92.1548C47.2914 92.1548 47.0047 92.1548 46.7339 92.1866C46.7339 92.1866 46.6861 92.1866 46.6702 92.1866C45.6348 92.2501 44.5995 92.3929 43.5482 92.631C30.7099 94.7735 17.2345 102.36 10.7835 117.246C9.28625 120.055 8.04383 120.769 7.37484 120.896C6.06871 121.15 4.47587 119.896 3.36089 118.801L0 122.182C2.37333 124.531 4.7148 125.705 7.00849 125.705C7.37484 125.705 7.75712 125.657 8.12347 125.594C7.32706 129.228 6.89699 133.196 6.89699 137.497C6.89699 145.892 9.49331 156.367 13.8418 165.54L14.4948 166.905H33.354L33.0514 164.238C32.9877 163.62 31.6019 149.527 52.2292 145.924C53.9494 149.288 57.9793 157.89 57.8837 164.477L57.8519 166.889H76.5359L77.1093 165.318C77.8579 163.255 78.4473 160.588 78.8773 157.255C82.0312 160.731 83.8151 164.445 83.8311 164.492L85.0098 167L102.674 155.256L101.766 153.399C101.32 152.478 91.8112 132.99 81.0117 123.309C81.7126 123.07 82.3975 122.817 83.0506 122.531C83.9426 122.15 84.8505 121.61 85.6628 121.134L86.1248 120.865C90.3458 118.246 93.42 115.246 95.2677 111.914C97.5454 107.787 100.349 107.375 101.273 107.248C101.719 107.184 103.073 106.978 103.55 105.55L103.996 104.121L102.945 103.09C102.579 102.74 102.228 102.391 101.878 102.058C100.89 101.122 99.409 99.7092 99.2497 99.2489C99.186 98.3126 101.878 96.9795 107.262 95.2496C108.233 94.9322 109.141 94.6465 109.922 94.3608C116.182 91.9327 121.454 87.4096 123.987 82.3469C125.946 78.9189 127.093 74.983 127.427 70.936C130.023 72.412 132.715 73.634 135.487 74.5386L137 70.0155L136.936 70.0473ZM35.9026 104.692C37.9414 100.296 41.7961 97.5667 46.7976 96.9636C46.5587 100.899 47.2436 105.121 49.1231 109.454C51.0982 113.993 54.5706 117.881 59.2536 120.833C54.6343 126.673 44.5835 129.927 40.7129 131.006C34.4531 121.468 32.6532 111.723 35.9026 104.692ZM51.5124 97.5349C52.707 97.9317 53.822 98.5348 54.8892 99.3441C58.8235 102.328 61.3402 107.835 61.6428 114.056C61.6906 114.913 61.611 115.738 61.4198 116.532C58.489 114.612 55.3352 111.707 53.5194 107.549C51.9743 104.026 51.385 100.661 51.5283 97.5349H51.5124ZM96.4941 153.653L86.8097 160.096C85.408 157.747 82.8913 154.145 79.4189 151.256C79.6419 147.733 79.7693 143.702 79.7693 139.131C79.7693 134.989 79.5623 131.387 79.1641 128.165C86.8734 135.783 94.0252 148.844 96.5101 153.653H96.4941ZM119.718 80.125C117.647 84.2672 113.314 87.9333 108.17 89.933C107.469 90.1869 106.641 90.4567 105.733 90.7424C100.811 92.3294 94.0571 94.4878 94.4235 99.614C94.535 101.122 95.4588 102.439 96.7331 103.772C94.4394 104.962 92.5439 106.93 91.0307 109.644C89.6131 112.199 87.0327 114.691 83.6081 116.818L83.1621 117.071C82.4931 117.468 81.7126 117.928 81.1073 118.198C79.2915 118.976 77.0456 119.627 75.2775 119.881L72.6334 120.261L73.3024 122.848C74.4493 127.213 74.9749 132.402 74.9749 139.147C74.9749 149.78 74.3378 157.509 73.0635 162.175H62.5189C61.6747 153.018 55.8449 142.655 55.5741 142.179L54.7777 140.766L53.1689 140.988C33.9912 143.67 28.5755 154.827 28.1773 162.175H17.5053C13.8258 153.954 11.6596 144.845 11.6596 137.528C11.6596 118.5 20.9777 107.025 32.3028 101.28C32.032 101.741 31.793 102.217 31.5701 102.709C27.4446 111.628 29.7542 123.737 37.7343 135.1L38.6582 136.402L40.2192 136.053C41.3182 135.799 67.17 129.847 66.4054 113.834C66.0391 106.216 62.8215 99.3918 57.7722 95.567C56.0838 94.2815 54.2361 93.361 52.2929 92.8055C54.045 86.87 58.4731 82.2041 63.5224 79.6013C69.9893 76.2685 78.1924 76.9192 84.9301 81.2836C91.1741 86.1399 99.6161 86.9969 106.481 83.4578C115.847 78.6332 119.558 66.6669 115.99 55.1767H116.022C116.022 55.1767 115.99 55.1132 115.975 55.0814C115.433 53.3833 114.748 51.701 113.888 50.0505C113.84 49.9712 113.792 49.8759 113.76 49.7966C116.452 51.9391 119.256 54.9227 120.753 58.4936C123.652 65.4131 123.27 73.8721 119.718 80.125Z" fill="#F9F8F4"></path>
  <path d="M115.667 19.2861C116.771 18.2054 117.33 16.6071 116.952 14.9936C116.59 13.38 115.395 12.1623 113.943 11.6904C114.473 10.2443 114.291 8.55471 113.263 7.26085C112.235 5.96698 110.647 5.38855 109.12 5.60166C108.984 4.06425 108.077 2.63339 106.595 1.90274C105.113 1.18731 103.434 1.36997 102.134 2.2224C101.348 0.898092 99.9113 0 98.2631 0C96.615 0 95.1785 0.898092 94.3922 2.2224C93.1069 1.36997 91.4285 1.18731 89.9467 1.91796C88.4648 2.63339 87.5576 4.06425 87.4064 5.61688C85.8792 5.419 84.2915 5.98221 83.2633 7.27607C82.2351 8.56993 82.0385 10.2596 82.5677 11.7056C81.101 12.1927 79.9216 13.3953 79.5587 15.0088C79.1958 16.6223 79.7401 18.2358 80.844 19.3014C79.7401 20.3821 79.1807 21.9804 79.5587 23.5939C79.9216 25.2075 81.1161 26.4252 82.5677 26.8971C82.0385 28.3432 82.2199 30.0328 83.2482 31.3267C84.2764 32.6205 85.8641 33.199 87.3913 32.9859C87.5274 34.5233 88.4346 35.9541 89.9164 36.6848C91.3983 37.4002 93.0767 37.2175 94.3771 36.3651C95.1634 37.6894 96.5999 38.5875 98.248 38.5875C99.8962 38.5875 101.333 37.6894 102.119 36.3651C103.404 37.2175 105.083 37.4002 106.564 36.6696C108.046 35.9541 108.954 34.5233 109.105 32.9706C110.632 33.1685 112.22 32.6053 113.248 31.3114C114.276 30.0176 114.473 28.328 113.943 26.8819C115.41 26.3948 116.59 25.1922 116.952 23.5787C117.315 21.9652 116.771 20.3517 115.667 19.2861Z" fill="#FA5B4C"></path>
</svg>
