<svg xmlns="http://www.w3.org/2000/svg" id="Layer_1" data-name="Layer 1" viewBox="0 0 170 180"><defs><style>      .cls-1 {        fill: #fa5b4c;        fill-rule: evenodd;      }      .cls-1, .cls-2 {        stroke-width: 0px;      }      .cls-2 {        fill: #fff;      }    </style></defs><path class="cls-1" d="M169.1,64.4c1.5,6.7-.7,13.2-5.3,17.7,4.5,4.4,6.7,11,5.3,17.7-1.5,6.7-6.3,11.6-12.3,13.6,2.2,6,1.4,12.9-2.8,18.3-4.2,5.3-10.7,7.7-17,6.8-.6,6.4-4.3,12.3-10.4,15.3-6.1,3-12.9,2.3-18.2-1.3-3.2,5.5-9.1,9.2-15.8,9.2s-12.6-3.7-15.8-9.2c-5.3,3.5-12.2,4.3-18.3,1.3-6.1-3-9.8-8.9-10.3-15.3-6.3.9-12.7-1.5-17-6.8-4.2-5.3-5-12.3-2.8-18.3-5.9-1.9-10.8-7-12.3-13.6-1.5-6.7.7-13.2,5.3-17.7-4.5-4.4-6.7-11-5.3-17.7,1.5-6.7,6.3-11.6,12.3-13.6-2.2-6-1.4-12.9,2.8-18.3,4.2-5.3,10.7-7.7,17-6.8.6-6.4,4.3-12.3,10.4-15.3,6.1-3,12.9-2.3,18.2,1.3,3.2-5.5,9.1-9.2,15.8-9.2s12.6,3.7,15.8,9.2c5.3-3.5,12.2-4.3,18.3-1.3,6.1,3,9.8,8.9,10.3,15.3,6.2-.9,12.7,1.5,17,6.8,4.2,5.3,4.9,12.3,2.8,18.3,5.9,1.9,10.8,7,12.3,13.6Z"></path><path class="cls-2" d="M109.3,100.2c-2.6-.9-5.2-2.1-7.6-3.7-.2-2.4-.8-4.7-1.7-6.9-2.8-6.7-10-11.2-13.1-12-.2,0-.8-.2-1.4-.2-2.6-5.2-3.8-9.1-3.9-9.2l-3.6,1.1c.1.5,3.3,11.1,11.2,20.8,2,7.2-.2,14.5-5.8,17.5-4.2,2.1-9.3,1.6-13.1-1.4h-.1c-6.5-4.4-14.6-5-20.9-1.7-5.1,2.7-9.4,7.5-10.9,13.4-.2,0-.4,0-.7,0h0c-.8,0-1.6.2-2.5.4-10.2,1.7-20.9,7.7-26.1,19.6-1.2,2.2-2.2,2.8-2.7,2.9-1,.2-2.3-.8-3.2-1.7l-2.7,2.7c1.9,1.9,3.8,2.8,5.6,2.8s.6,0,.9,0c-.6,2.9-1,6.1-1,9.5,0,6.7,2.1,15,5.5,22.3l.5,1.1h15l-.2-2.1c0-.5-1.2-11.7,15.3-14.6,1.4,2.7,4.6,9.5,4.5,14.8v1.9s14.8,0,14.8,0l.5-1.3c.6-1.6,1.1-3.8,1.4-6.4,2.5,2.8,3.9,5.7,3.9,5.8l.9,2,14.1-9.4-.7-1.5c-.4-.7-7.9-16.3-16.5-24,.6-.2,1.1-.4,1.6-.6.7-.3,1.4-.7,2.1-1.1l.4-.2c3.4-2.1,5.8-4.5,7.3-7.1,1.8-3.3,4-3.6,4.8-3.7.4,0,1.4-.2,1.8-1.4l.4-1.1-.8-.8c-.3-.3-.6-.6-.8-.8-.8-.7-2-1.9-2.1-2.2,0-.7,2.1-1.8,6.4-3.2.8-.3,1.5-.5,2.1-.7,5-1.9,9.2-5.5,11.2-9.6,1.6-2.7,2.5-5.9,2.7-9.1,2.1,1.2,4.2,2.1,6.4,2.9l1.2-3.6h0ZM29,127.8c1.6-3.5,4.7-5.7,8.7-6.2-.2,3.1.4,6.5,1.9,9.9,1.6,3.6,4.3,6.7,8.1,9.1-3.7,4.7-11.7,7.2-14.8,8.1-5-7.6-6.4-15.4-3.8-21ZM41.4,122.1c1,.3,1.8.8,2.7,1.4,3.1,2.4,5.1,6.8,5.4,11.7,0,.7,0,1.3-.2,2-2.3-1.5-4.8-3.8-6.3-7.2-1.2-2.8-1.7-5.5-1.6-8h0ZM77.2,166.8l-7.7,5.1c-1.1-1.9-3.1-4.7-5.9-7,.2-2.8.3-6,.3-9.7s-.2-6.2-.5-8.7c6.1,6.1,11.8,16.5,13.8,20.3h0ZM95.7,108.2c-1.6,3.3-5.1,6.2-9.2,7.8-.6.2-1.2.4-1.9.6-3.9,1.3-9.3,3-9,7.1,0,1.2.8,2.2,1.8,3.3-1.8.9-3.3,2.5-4.5,4.7-1.1,2-3.2,4-5.9,5.7l-.4.2c-.5.3-1.2.7-1.6.9-1.4.6-3.2,1.1-4.6,1.3l-2.1.3.5,2.1c.9,3.5,1.3,7.6,1.3,13,0,8.5-.5,14.6-1.5,18.3h-8.4c-.7-7.3-5.3-15.5-5.5-15.9l-.6-1.1-1.3.2c-15.3,2.1-19.6,11-19.9,16.9h-8.5c-2.9-6.5-4.7-13.8-4.7-19.6,0-15.2,7.4-24.3,16.4-28.9-.2.4-.4.7-.6,1.1-3.3,7.1-1.4,16.7,4.9,25.8l.7,1,1.2-.3c.9-.2,21.4-4.9,20.8-17.7-.3-6.1-2.9-11.5-6.9-14.5-1.3-1-2.8-1.8-4.4-2.2,1.4-4.7,4.9-8.4,8.9-10.5,5.1-2.7,11.7-2.1,17,1.3,5,3.9,11.7,4.6,17.1,1.7,7.5-3.8,10.4-13.4,7.6-22.5h0s0,0,0,0c-.4-1.4-1-2.7-1.7-4,0,0,0-.1-.1-.2,2.1,1.7,4.4,4.1,5.6,6.9,2.3,5.5,2,12.2-.8,17.2Z"></path><path class="cls-2" d="M92.4,59.8c.9-.9,1.3-2.1,1-3.4-.3-1.3-1.2-2.3-2.4-2.6.4-1.2.3-2.5-.5-3.5-.8-1-2.1-1.5-3.3-1.3-.1-1.2-.8-2.4-2-2.9-1.2-.6-2.5-.4-3.5.3-.6-1.1-1.8-1.8-3.1-1.8s-2.5.7-3.1,1.8c-1-.7-2.4-.8-3.5-.2-1.2.6-1.9,1.7-2,2.9-1.2-.2-2.5.3-3.3,1.3-.8,1-1,2.4-.6,3.5-1.2.4-2.1,1.3-2.4,2.6-.3,1.3.1,2.6,1,3.4-.9.9-1.3,2.1-1,3.4.3,1.3,1.2,2.3,2.4,2.6-.4,1.2-.3,2.5.5,3.5.8,1,2.1,1.5,3.3,1.3.1,1.2.8,2.4,2,2.9,1.2.6,2.5.4,3.5-.3.6,1.1,1.8,1.8,3.1,1.8s2.5-.7,3.1-1.8c1,.7,2.4.8,3.5.2,1.2-.6,1.9-1.7,2-2.9,1.2.2,2.5-.3,3.3-1.3.8-1,1-2.4.6-3.5,1.2-.4,2.1-1.3,2.4-2.6.3-1.3-.1-2.6-1-3.4Z"></path></svg>