<?xml version="1.0" encoding="UTF-8"?>
<svg xmlns="http://www.w3.org/2000/svg" id="Layer_1" data-name="Layer 1" version="1.1" viewBox="0 0 1920 861">
  <defs>
    <style>
      .cls-1 {
        fill: #079393;
        stroke-width: 0px;
      }
    </style>
  </defs>
  <path class="cls-1" d="M666.4,371.6c-15.4-5.1-30.3-12.5-44.4-21.7-1.3-13.7-4.6-27.4-10.1-40.3-16.3-38.8-58.2-65-76-69.8-1.4-.4-4.5-1.2-8-1-15.3-30-22.3-53.1-22.4-53.5l-21.2,6.2c.8,2.6,19.2,64.5,64.9,121,11.9,42.1-1.1,84.5-34,101.5-24.2,12.5-54.1,9.3-76.2-8.1l-.8-.6c-38-24.9-84.7-28.4-121.8-9.3-29.9,15.4-54.5,43.3-63.6,77.8-1.3,0-2.6,0-3.8.1h-.3c-4.8.3-9.6,1-14.4,2.1-59.4,9.9-121.8,45-151.6,113.9-6.9,13-12.7,16.3-15.8,16.9-6,1.2-13.4-4.6-18.6-9.7l-15.6,15.6c11,10.9,21.8,16.3,32.4,16.3s3.5-.2,5.2-.5c-3.7,16.8-5.7,35.2-5.7,55.1,0,38.8,12,87.3,32.1,129.7l3,6.3h87.3l-1.4-12.3c-.3-2.9-6.7-68.1,88.7-84.7,8,15.6,26.6,55.4,26.2,85.8v11.2c-.1,0,86.3,0,86.3,0l2.7-7.3c3.5-9.5,6.2-21.9,8.2-37.3,14.6,16.1,22.8,33.3,22.9,33.5l5.5,11.6,81.7-54.3-4.2-8.6c-2.1-4.3-46.1-94.4-96-139.2,3.2-1.1,6.4-2.3,9.4-3.6,4.1-1.8,8.3-4.3,12.1-6.5l2.1-1.2c19.5-12.1,33.8-26,42.3-41.4,10.5-19.1,23.5-21,27.8-21.6,2.1-.3,8.3-1.2,10.5-7.9l2.1-6.6-4.9-4.8c-1.7-1.6-3.3-3.2-4.9-4.8-4.6-4.3-11.4-10.9-12.2-13-.3-4.3,12.2-10.5,37.1-18.5,4.5-1.5,8.7-2.8,12.3-4.1,29-11.2,53.4-32.2,65.1-55.6,9.1-15.9,14.4-34.1,15.9-52.8,12,6.8,24.5,12.5,37.3,16.7l7-20.9h-.3ZM198.9,531.9c9.4-20.3,27.3-33,50.4-35.8-1.1,18.2,2.1,37.7,10.8,57.8,9.1,21,25.2,39,46.9,52.6-21.4,27-67.9,42.1-85.8,47.1-29-44.1-37.3-89.2-22.3-121.7ZM271.1,498.7c5.5,1.8,10.7,4.6,15.6,8.4,18.2,13.8,29.8,39.3,31.3,68.1.2,4-.1,7.8-1,11.5-13.6-8.9-28.2-22.3-36.6-41.6-7.1-16.3-9.9-31.9-9.2-46.3h0ZM479.2,758.4l-44.8,29.8c-6.5-10.9-18.1-27.5-34.2-40.9,1-16.3,1.6-34.9,1.6-56.1s-1-35.8-2.8-50.7c35.7,35.2,68.8,95.7,80.3,117.9h0ZM586.7,418.2c-9.6,19.2-29.6,36.1-53.4,45.4-3.2,1.2-7.1,2.4-11.3,3.7-22.8,7.3-54,17.3-52.3,41,.5,7,4.8,13.1,10.7,19.2-10.6,5.5-19.4,14.6-26.4,27.2-6.6,11.8-18.5,23.3-34.3,33.2l-2.1,1.2c-3.1,1.8-6.7,4-9.5,5.2-8.4,3.6-18.8,6.6-27,7.8l-12.2,1.8,3.1,12c5.3,20.2,7.7,44.2,7.7,75.4,0,49.2-2.9,85-8.8,106.5h-48.8c-3.9-42.4-30.9-90.3-32.1-92.5l-3.7-6.5-7.4,1c-88.7,12.4-113.8,64-115.6,98h-49.4c-17-38-27-80.2-27-114,0-88,43.1-141.1,95.5-167.7-1.3,2.1-2.4,4.3-3.4,6.6-19.1,41.3-8.4,97.3,28.5,149.9l4.3,6,7.2-1.6c5.1-1.2,124.7-28.7,121.2-102.8-1.7-35.2-16.6-66.8-39.9-84.5-7.8-5.9-16.4-10.2-25.4-12.8,8.1-27.5,28.6-49,52-61.1,29.9-15.4,67.9-12.4,99.1,7.8,28.9,22.5,68,26.4,99.7,10.1,43.3-22.3,60.5-77.7,44-130.8h.1s-.1-.3-.2-.4c-2.5-7.9-5.7-15.6-9.7-23.3-.2-.4-.4-.8-.6-1.2,12.5,9.9,25.4,23.7,32.4,40.2,13.4,32,11.6,71.1-4.8,100.1Z"></path>
  <path class="cls-1" d="M568,136.7c5.1-5,7.7-12.4,5.9-19.9-1.7-7.5-7.2-13.1-13.9-15.3,2.4-6.7,1.6-14.5-3.1-20.5-4.8-6-12.1-8.7-19.2-7.7-.6-7.1-4.8-13.7-11.7-17.1-6.9-3.3-14.6-2.5-20.6,1.5-3.6-6.1-10.3-10.3-17.9-10.3s-14.3,4.2-17.9,10.3c-5.9-3.9-13.7-4.8-20.6-1.4-6.9,3.3-11.1,9.9-11.8,17.1-7.1-.9-14.4,1.7-19.2,7.7-4.8,6-5.7,13.8-3.2,20.5-6.8,2.3-12.2,7.8-13.9,15.3-1.7,7.5.8,14.9,5.9,19.9-5.1,5-7.7,12.4-5.9,19.9,1.7,7.5,7.2,13.1,13.9,15.3-2.4,6.7-1.6,14.5,3.1,20.5,4.8,6,12.1,8.7,19.2,7.7.6,7.1,4.8,13.7,11.7,17.1,6.9,3.3,14.6,2.5,20.6-1.5,3.6,6.1,10.3,10.3,17.9,10.3s14.3-4.2,17.9-10.3c5.9,3.9,13.7,4.8,20.6,1.4,6.9-3.3,11.1-9.9,11.8-17.1,7.1.9,14.4-1.7,19.2-7.7,4.8-6,5.7-13.8,3.2-20.5,6.8-2.3,12.2-7.8,13.9-15.3,1.7-7.5-.8-14.9-5.9-19.9Z"></path>
</svg>
